<svg xmlns="http://www.w3.org/2000/svg" width="32" height="32" viewBox="0 0 32 32">
  <g id="instagram" transform="translate(1 1)">
    <circle id="Ellipse_10" data-name="Ellipse 10" cx="15" cy="15" r="15" fill="rgba(255,255,255,0)" stroke="#fd4f00" stroke-width="2"/>
    <g id="instagram-logo" transform="translate(6 6)">
      <path id="Path_525" data-name="Path 525" d="M89.389,92.33a3,3,0,1,1,3,3,3,3,0,0,1-3-3m-1.622,0a4.622,4.622,0,1,0,4.622-4.622,4.621,4.621,0,0,0-4.622,4.622m8.346-4.8a1.08,1.08,0,1,0,1.08-1.08,1.081,1.081,0,0,0-1.08,1.08M88.752,99.656a4.972,4.972,0,0,1-1.671-.31,2.98,2.98,0,0,1-1.708-1.708,4.971,4.971,0,0,1-.31-1.671c-.044-.949-.052-1.234-.052-3.637s.009-2.688.052-3.637a5,5,0,0,1,.31-1.671,2.978,2.978,0,0,1,1.708-1.708A4.972,4.972,0,0,1,88.752,85c.949-.044,1.234-.052,3.637-.052s2.688.009,3.637.052a5,5,0,0,1,1.671.31,2.978,2.978,0,0,1,1.708,1.708,4.972,4.972,0,0,1,.31,1.671c.044.949.052,1.234.052,3.637s-.009,2.688-.052,3.637a4.991,4.991,0,0,1-.31,1.671A2.98,2.98,0,0,1,97.7,99.347a4.972,4.972,0,0,1-1.671.31c-.949.044-1.234.052-3.637.052s-2.688-.009-3.637-.052m-.074-16.272a6.6,6.6,0,0,0-2.185.418,4.6,4.6,0,0,0-2.632,2.632,6.6,6.6,0,0,0-.418,2.185c-.044.96-.055,1.266-.055,3.711s.01,2.751.055,3.711a6.6,6.6,0,0,0,.418,2.185,4.6,4.6,0,0,0,2.632,2.632,6.605,6.605,0,0,0,2.185.418c.96.044,1.266.055,3.711.055s2.751-.01,3.711-.055a6.6,6.6,0,0,0,2.185-.418,4.6,4.6,0,0,0,2.632-2.632,6.583,6.583,0,0,0,.418-2.185c.044-.96.054-1.266.054-3.711s-.01-2.751-.054-3.711a6.6,6.6,0,0,0-.418-2.185A4.6,4.6,0,0,0,98.284,83.8a6.591,6.591,0,0,0-2.185-.418c-.96-.044-1.266-.055-3.711-.055s-2.751.01-3.711.055" transform="translate(-83.388 -83.33)" fill="#fd4f00"/>
    </g>
  </g>
</svg>
