<svg xmlns="http://www.w3.org/2000/svg" width="20" height="20" viewBox="0 0 20 20">
  <g id="Group_2" data-name="Group 2" transform="translate(-190 -4055)">
    <rect id="Rectangle_20" data-name="Rectangle 20" width="20" height="20" transform="translate(190 4055)" fill="#fff"/>
    <g id="Group_1" data-name="Group 1" transform="translate(193 4055)">
      <path id="Path_1" data-name="Path 1" d="M6.638,0a6.594,6.594,0,0,1,6.553,6.723c0,3.66-2.894,4.511-6.553,13.277C2.894,11.234,0,10.383,0,6.723A6.665,6.665,0,0,1,6.638,0Zm0,4.085A2.56,2.56,0,0,1,9.191,6.638,2.618,2.618,0,0,1,6.638,9.191,2.56,2.56,0,0,1,4.085,6.638,2.508,2.508,0,0,1,6.638,4.085Z" fill-rule="evenodd"/>
    </g>
  </g>
</svg>
