<svg xmlns="http://www.w3.org/2000/svg" width="20" height="20" viewBox="0 0 20 20">
  <g id="Group_3" data-name="Group 3" transform="translate(-190 -4137)">
    <rect id="Rectangle_21" data-name="Rectangle 21" width="20" height="20" transform="translate(190 4137)" fill="#fff"/>
    <g id="Phone" transform="translate(186.773 4134.078)">
      <path id="Path_2" data-name="Path 2" d="M17.374,16.728a1.336,1.336,0,0,0-1.016-.378h0a2.436,2.436,0,0,0-2.294,1.737c-5.437-1.767-5.935-5.9-5.935-5.9l1.053-1.466L8.13,12.182a2.7,2.7,0,0,0,1.653-1.8,1.388,1.388,0,0,0,.1-.647v0h0A1.308,1.308,0,0,0,9.5,8.916L6.851,6.281A1.39,1.39,0,0,0,4.9,6.317l-.748.747.02.02a4.288,4.288,0,0,0-.616,1.079,4.445,4.445,0,0,0-.274,1.095c-.35,2.885.977,5.521,4.581,9.1,4.981,4.944,8.995,4.571,9.168,4.552a4.511,4.511,0,0,0,1.106-.276,4.317,4.317,0,0,0,1.083-.609l.016.014.758-.737a1.368,1.368,0,0,0,.035-1.938ZM9.886,9.753v0Zm-.053.435v0A0,0,0,0,1,9.833,10.188Zm.012-.061Zm.04-.357a.064.064,0,0,1,0-.007A.066.066,0,0,0,9.885,9.77Zm12.349,5.546a.989.989,0,0,1-.993-.986,9.482,9.482,0,0,0-9.506-9.437.986.986,0,1,1,0-1.971,11.458,11.458,0,0,1,8.126,3.341,11.293,11.293,0,0,1,3.366,8.067A.989.989,0,0,1,22.234,15.316Zm-3.9-.457a.989.989,0,0,1-.993-.986A5.137,5.137,0,0,0,12.2,8.76a.986.986,0,1,1,0-1.971,7.118,7.118,0,0,1,7.135,7.084A.989.989,0,0,1,18.339,14.858Z"/>
    </g>
  </g>
</svg>
