<svg xmlns="http://www.w3.org/2000/svg" width="20" height="20" viewBox="0 0 20 20">
  <g id="Group_5" data-name="Group 5" transform="translate(-190 -4219)">
    <rect id="Rectangle_22" data-name="Rectangle 22" width="20" height="20" transform="translate(190 4219)" fill="#fff"/>
    <g id="Email" transform="translate(189 4218)">
      <g id="Group_4" data-name="Group 4" transform="translate(1 3)">
        <path id="Path_3" data-name="Path 3" d="M18.639,18l-6.655-6.239a1.632,1.632,0,0,1-1.969,0L3.361,18Zm1-.935V5.647a1.605,1.605,0,0,1-.132.118L13.062,10.9Zm-17.273,0L8.938,10.9,2.5,5.765a1.587,1.587,0,0,1-.132-.118ZM18.6,4.364H3.4a.22.22,0,0,0-.034.367L10.855,10.7a.233.233,0,0,0,.289,0l7.492-5.974a.219.219,0,0,0,.032-.313A.228.228,0,0,0,18.6,4.364ZM2.818,3H19.182A1.818,1.818,0,0,1,21,4.818V17.545a1.818,1.818,0,0,1-1.818,1.818H2.818A1.818,1.818,0,0,1,1,17.545V4.818A1.818,1.818,0,0,1,2.818,3Z" transform="translate(-1 -3)"/>
      </g>
    </g>
  </g>
</svg>
