<svg xmlns="http://www.w3.org/2000/svg" width="20" height="20" viewBox="0 0 20 20">
  <g id="Group_6" data-name="Group 6" transform="translate(-190 -4281)">
    <rect id="Rectangle_23" data-name="Rectangle 23" width="20" height="20" transform="translate(190 4281)" fill="#fff"/>
    <g id="Website" transform="translate(182 4273)">
      <path id="Path_4" data-name="Path 4" d="M18,8A10,10,0,1,0,28,18,10,10,0,0,0,18,8Zm6.93,6H22.585a13.1,13.1,0,0,0-1.122-3.215A8.037,8.037,0,0,1,24.93,14Zm-8.68-2.177C16.877,10.573,17.55,10,18,10s1.12.568,1.75,1.823A10.828,10.828,0,0,1,20.53,14H15.47A10.77,10.77,0,0,1,16.25,11.823ZM10.25,20a8.047,8.047,0,0,1,0-4H13.1a19.8,19.8,0,0,0,0,4Zm.818,2h2.345a13.1,13.1,0,0,0,1.123,3.215A8.038,8.038,0,0,1,11.07,22Zm2.345-8H11.07a8.038,8.038,0,0,1,3.467-3.215A13.1,13.1,0,0,0,13.415,14ZM19.75,24.177C19.123,25.427,18.45,26,18,26s-1.12-.567-1.75-1.823A10.77,10.77,0,0,1,15.47,22h5.06a10.77,10.77,0,0,1-.78,2.177ZM20.888,20H15.113A17.353,17.353,0,0,1,15,18a17.841,17.841,0,0,1,.112-2h5.775A17.835,17.835,0,0,1,20.888,20Zm.575,5.215A13.1,13.1,0,0,0,22.585,22H24.93A8.038,8.038,0,0,1,21.462,25.215ZM26,18a8,8,0,0,1-.25,2H22.9a19.8,19.8,0,0,0,0-4h2.85A8,8,0,0,1,26,18Z"/>
    </g>
  </g>
</svg>
